<?xml version="1.0" standalone="no"?>
<!DOCTYPE svg PUBLIC "-//W3C//DTD SVG 20010904//EN"
  "http://www.w3.org/TR/2001/REC-SVG-20010904/DTD/svg10.dtd">
<svg xmlns="http://www.w3.org/2000/svg" version="1.0"
     width="1024.000000pt" height="1024.000000pt"
     viewBox="0 0 1024.000000 1024.000000"
     preserveAspectRatio="xMidYMid meet">
  <metadata>
  </metadata>
  <g
    transform="translate(0.000000,1024.000000) scale(0.100000,-0.100000)"
    fill="currentColor" stroke="none">
    <path
      d="M6243 8289 c-12 -4 -29 -22 -38 -39 -9 -18 -21 -28 -27 -24 -7 5 -8 3 -3 -6 6 -9 1 -10 -16 -6 -22 6 -23 6 -6 -7 22 -18 22 -27 -2 -27 -26 0 -36 -17 -20 -36 10 -12 10 -15 -1 -12 -8 2 -14 -2 -15 -9 0 -6 -4 -15 -9 -20 -5 -5 -6 -3 -2 4 5 8 2 11 -7 7 -7 -2 -14 -10 -14 -17 0 -7 -3 -23 -6 -37 -4 -14 -4 -19 -1 -12 3 6 10 10 15 7 4 -3 1 -21 -8 -40 -9 -19 -20 -32 -25 -29 -4 3 -5 -2 -2 -10 4 -9 -1 -18 -10 -22 -9 -3 -13 -10 -10 -15 3 -5 -1 -12 -10 -15 -9 -3 -12 -12 -9 -21 4 -10 2 -14 -4 -10 -13 8 -26 -20 -16 -35 4 -7 1 -8 -7 -3 -10 6 -12 4 -7 -8 3 -9 1 -22 -6 -30 -24 -26 -37 -55 -25 -59 12 -4 -14 -64 -31 -70 -5 -1 -11 -12 -13 -23 -1 -11 -9 -26 -16 -34 -7 -7 -11 -20 -8 -27 3 -8 1 -14 -4 -14 -5 0 -7 -7 -4 -15 4 -8 1 -15 -6 -15 -6 0 -9 -4 -6 -9 4 -5 2 -11 -2 -13 -13 -5 -53 -118 -47 -129 4 -5 1 -9 -5 -9 -6 0 -8 -4 -5 -10 3 -5 2 -10 -2 -10 -5 0 -16 -22 -26 -50 -10 -27 -22 -50 -27 -50 -6 0 -10 -5 -10 -10 0 -24 -38 -49 -90 -59 -30 -5 -81 -18 -112 -29 -47 -16 -58 -17 -62 -5 -5 11 -9 11 -26 1 -11 -7 -20 -18 -20 -25 0 -7 -5 -13 -11 -13 -5 0 -7 -5 -3 -12 5 -8 2 -9 -11 -5 -19 8 -97 -22 -90 -34 7 -11 -29 -5 -37 6 -5 6 -8 5 -8 -3 0 -7 -10 -26 -21 -42 -14 -19 -20 -37 -16 -52 5 -21 5 -21 -7 -6 -15 20 -26 14 -26 -14 0 -11 5 -16 10 -13 6 4 17 1 25 -5 18 -15 20 -45 4 -34 -8 5 -10 -1 -7 -19 3 -16 1 -24 -5 -20 -6 4 -8 -9 -4 -36 4 -35 3 -40 -9 -30 -11 9 -14 8 -14 -5 0 -9 4 -16 9 -16 6 0 3 -22 -5 -50 -8 -27 -13 -62 -12 -77 3 -30 27 -65 39 -58 4 3 10 -2 13 -11 4 -9 2 -13 -5 -8 -7 4 -10 1 -7 -7 3 -8 11 -13 17 -11 7 1 10 -2 7 -7 -3 -5 2 -15 11 -22 14 -12 16 -12 8 1 -8 13 -7 13 8 1 9 -7 17 -20 17 -28 0 -8 5 -11 10 -8 6 3 10 -1 10 -10 0 -12 8 -8 27 14 15 17 33 31 40 31 7 0 13 5 13 11 0 8 11 9 33 5 23 -4 28 -3 17 4 -19 13 -8 13 24 0 15 -5 26 -17 26 -28 0 -10 6 -24 13 -31 10 -11 9 -14 -1 -18 -6 -3 -10 -9 -6 -14 3 -5 1 -9 -4 -9 -6 0 -15 -22 -22 -50 -7 -30 -17 -50 -26 -50 -8 0 -14 -8 -14 -17 0 -15 2 -16 10 -3 6 9 10 10 10 3 0 -6 -5 -15 -11 -19 -6 -3 -9 -15 -6 -25 3 -11 1 -17 -4 -13 -5 3 -9 -6 -9 -20 0 -37 -1 -40 -12 -53 -5 -7 -6 -18 -2 -25 5 -8 1 -8 -11 2 -17 14 -17 13 -10 -9 5 -16 4 -21 -4 -17 -6 4 -11 2 -11 -3 0 -6 4 -11 8 -11 4 0 8 -9 8 -20 0 -11 -4 -20 -8 -20 -4 0 -5 -7 -2 -15 4 -8 1 -15 -6 -15 -7 0 -10 -7 -6 -15 3 -8 0 -15 -5 -15 -6 0 -9 -9 -6 -20 3 -12 1 -18 -5 -14 -7 5 -9 -2 -6 -20 3 -14 1 -26 -4 -26 -5 0 -7 -10 -3 -22 5 -20 4 -21 -7 -7 -21 26 -40 0 -22 -32 17 -30 18 -53 2 -43 -7 5 -9 2 -5 -8 3 -9 1 -20 -4 -25 -6 -6 -11 -25 -13 -44 -2 -19 -6 -41 -9 -49 -4 -8 -8 -26 -9 -40 -2 -14 -6 -27 -9 -30 -12 -10 -59 -192 -53 -202 5 -7 2 -8 -6 -3 -10 6 -12 3 -8 -13 4 -12 1 -22 -4 -22 -6 0 -8 -13 -4 -32 4 -20 3 -28 -3 -19 -6 9 -11 -2 -16 -35 -5 -27 -8 -52 -7 -56 1 -5 -5 -8 -13 -8 -12 0 -13 -4 -5 -19 13 -26 13 -44 -1 -35 -8 5 -10 -3 -7 -24 2 -17 1 -29 -3 -27 -4 3 -9 -10 -12 -28 -15 -92 -32 -167 -38 -167 -4 0 -3 -15 2 -32 12 -42 11 -57 -1 -38 -8 12 -10 9 -10 -12 0 -15 -4 -29 -9 -32 -9 -6 -6 -54 5 -85 2 -7 0 -19 -5 -25 -12 -14 -19 -186 -8 -186 4 0 6 -19 3 -42 -3 -24 -3 -38 0 -31 8 17 33 -7 27 -24 -3 -7 1 -13 8 -13 12 0 12 -2 0 -9 -11 -7 -9 -10 8 -16 12 -3 19 -10 16 -15 -3 -5 4 -14 15 -20 11 -6 17 -16 14 -22 -4 -6 -3 -8 4 -4 6 3 27 -13 48 -36 20 -24 34 -38 30 -31 -3 6 11 2 33 -10 22 -12 37 -25 35 -29 -5 -8 11 -12 29 -9 5 1 6 -3 2 -9 -3 -6 -11 -8 -16 -5 -5 4 -9 1 -9 -6 0 -7 8 -9 23 -4 12 3 27 6 32 5 6 0 29 -2 52 -4 23 -1 46 -5 49 -9 11 -10 92 -8 98 2 3 5 15 7 26 4 12 -3 20 0 20 6 0 7 5 9 10 6 6 -3 10 -1 10 6 0 7 3 9 7 6 3 -4 12 1 20 11 9 10 11 11 7 2 -7 -13 -5 -13 9 -2 9 8 15 19 14 25 -1 7 3 11 10 10 16 -3 74 68 66 80 -3 6 -1 7 5 3 7 -4 12 -4 12 1 0 4 18 27 40 51 22 24 38 48 35 53 -4 5 1 12 9 15 9 3 13 10 10 15 -3 5 6 14 20 20 14 7 23 16 20 20 -8 13 27 60 39 52 6 -3 7 -1 3 5 -3 6 0 14 7 19 19 11 75 89 57 78 -18 -10 8 23 63 79 21 21 35 41 33 44 -3 2 5 13 17 24 12 11 15 17 7 13 -8 -4 -4 3 9 14 22 20 48 20 35 0 -3 -5 -10 -7 -15 -4 -5 4 -9 1 -9 -6 0 -7 10 -9 24 -7 25 5 36 -7 36 -37 0 -8 5 -26 12 -42 6 -15 12 -34 14 -42 2 -8 5 -25 9 -38 3 -13 6 -26 6 -30 0 -5 6 -14 12 -22 9 -12 9 -13 0 -7 -7 4 -13 2 -13 -3 0 -10 21 -16 43 -12 4 0 7 -8 7 -18 0 -10 7 -21 15 -25 8 -3 14 -9 13 -13 -3 -9 5 -20 53 -73 17 -19 26 -26 18 -15 -10 16 -7 15 14 -4 29 -26 35 -36 15 -26 -7 4 -2 -3 12 -14 14 -11 30 -19 37 -16 7 2 15 -1 19 -7 5 -7 2 -8 -7 -4 -8 4 -6 1 4 -7 10 -8 26 -13 36 -10 11 3 24 -5 35 -22 10 -14 23 -24 29 -22 7 2 20 0 30 -5 14 -7 15 -13 7 -28 -6 -12 -7 -20 -1 -20 5 0 11 7 15 15 3 8 10 15 16 15 6 0 9 -4 5 -9 -3 -5 -1 -12 4 -15 5 -4 12 -2 16 4 3 5 14 10 23 10 15 0 15 -2 2 -11 -11 -8 -7 -9 18 -5 22 4 31 2 26 -5 -4 -7 0 -9 14 -5 11 4 23 2 27 -4 3 -5 19 -10 36 -10 16 0 29 -4 29 -10 0 -5 5 -10 11 -10 5 0 7 5 4 10 -4 6 8 10 27 11 28 0 30 2 13 10 -15 7 -9 8 24 5 29 -3 52 1 67 11 13 8 31 13 39 9 8 -3 15 -1 15 5 0 6 7 9 15 5 8 -3 15 -1 15 5 0 6 7 9 15 5 8 -3 15 -1 15 5 0 6 5 7 10 4 6 -3 10 -1 10 5 0 6 4 9 9 6 5 -3 12 1 15 10 3 9 11 14 18 12 6 -2 20 4 30 14 10 10 23 16 27 13 5 -2 12 2 15 11 4 9 13 14 22 10 8 -3 12 -2 9 4 -3 5 15 19 39 31 25 12 44 24 41 28 -2 5 12 23 33 42 23 22 29 25 17 9 l-20 -25 27 24 c15 13 25 27 23 32 -3 4 3 10 13 13 10 4 30 19 43 33 19 22 20 24 4 14 -11 -8 -1 5 22 28 23 22 40 41 38 41 -7 0 65 92 84 108 9 7 10 10 2 7 -9 -5 -8 1 4 19 10 14 21 26 26 26 5 0 8 3 8 8 -3 20 2 32 13 26 6 -4 8 -3 4 4 -3 6 0 16 7 24 7 7 14 18 15 23 6 30 14 45 23 40 5 -3 6 1 3 9 -4 9 0 18 9 22 9 3 13 12 11 19 -3 7 4 23 15 34 12 12 21 30 21 40 0 11 7 26 15 34 8 8 11 17 8 20 -3 3 2 13 11 22 9 9 14 21 11 26 -4 5 -1 9 4 9 6 0 11 -6 12 -12 0 -7 5 -2 10 11 6 16 6 28 -2 37 -8 10 -8 14 -1 14 6 0 9 7 6 15 -4 8 -1 15 6 15 6 0 8 4 5 10 -3 5 0 20 7 32 12 22 13 27 16 56 1 9 10 11 25 7 20 -6 21 -5 5 8 -19 15 -25 43 -8 32 6 -3 7 1 4 9 -3 9 1 23 10 31 9 9 16 22 16 28 0 7 -5 6 -11 -3 -9 -12 -10 -12 -5 3 3 10 6 25 6 33 0 9 4 13 9 10 5 -4 7 4 3 16 -3 15 -2 19 7 14 8 -6 10 -1 5 18 -4 16 -2 26 5 26 6 0 9 13 7 30 -2 17 1 30 6 30 5 0 7 9 3 20 -3 11 -3 25 1 32 5 7 7 28 5 46 -2 23 1 32 8 28 7 -5 9 7 5 37 -4 24 -2 47 2 50 5 3 6 71 2 153 -4 81 -4 152 -1 157 4 6 1 7 -7 2 -10 -6 -12 -1 -7 26 5 26 4 30 -4 19 -8 -12 -10 -9 -6 13 2 15 0 27 -5 27 -6 0 -7 11 -4 26 4 16 3 23 -3 19 -7 -3 -8 0 -5 9 3 9 1 16 -6 16 -6 0 -8 5 -4 12 4 6 -1 17 -11 25 -11 7 -15 13 -11 13 4 0 0 7 -8 16 -9 8 -14 20 -11 25 4 5 1 9 -5 9 -10 0 -75 97 -75 113 0 5 -8 14 -17 21 -10 7 -18 18 -18 25 0 6 -4 12 -10 12 -5 1 -14 2 -20 3 -5 0 -10 5 -9 10 1 11 -64 55 -73 49 -5 -2 -8 0 -8 6 0 6 -10 15 -21 22 -15 8 -19 8 -15 0 4 -6 2 -11 -3 -11 -6 0 -11 4 -11 10 0 5 -7 6 -17 3 -11 -5 -14 -3 -8 6 6 10 2 11 -15 6 -15 -5 -20 -4 -16 4 4 6 2 11 -3 11 -6 0 -11 8 -11 17 0 9 -3 14 -6 11 -9 -9 -49 35 -46 49 2 7 -2 13 -8 13 -5 0 -10 -4 -10 -10 0 -5 -11 -10 -25 -10 -14 0 -25 4 -25 8 0 16 -135 21 -238 9 -42 -6 -60 -12 -56 -19 5 -8 1 -9 -9 -5 -10 4 -29 2 -44 -4 -19 -7 -29 -7 -31 0 -5 14 -32 14 -32 0 0 -5 4 -8 9 -5 5 3 11 -1 14 -9 4 -9 1 -12 -7 -9 -8 3 -17 0 -22 -7 -5 -8 -3 -10 6 -4 9 5 11 4 6 -4 -4 -6 -11 -9 -16 -6 -5 3 -18 -3 -30 -15 -11 -11 -20 -17 -20 -13 0 4 -7 -2 -16 -13 -8 -10 -12 -12 -8 -4 3 8 -8 -1 -25 -20 -18 -19 -29 -28 -25 -20 4 8 -8 -2 -27 -22 -36 -39 -55 -49 -45 -23 3 8 2 15 -3 15 -5 0 -12 -16 -15 -35 -4 -22 -17 -42 -36 -55 -17 -12 -27 -26 -24 -32 4 -6 3 -8 -3 -5 -6 4 -21 -6 -34 -21 -20 -22 -20 -24 -3 -12 11 8 4 0 -15 -19 -20 -19 -29 -31 -21 -27 8 4 4 -2 -10 -14 -14 -12 -18 -19 -10 -15 8 4 6 -1 -5 -10 -11 -9 -19 -20 -18 -25 2 -5 -11 -23 -28 -39 -17 -17 -27 -31 -22 -31 4 0 0 -5 -10 -11 -22 -13 -50 -67 -41 -81 4 -6 3 -8 -4 -4 -9 5 -29 -32 -23 -43 2 -2 -4 -8 -13 -13 -9 -5 -14 -13 -11 -19 4 -5 -2 -9 -12 -9 -15 0 -16 -2 -3 -10 11 -7 11 -10 2 -10 -7 0 -10 -4 -7 -10 3 -5 1 -10 -5 -10 -6 0 -10 -6 -9 -12 2 -7 -8 -31 -22 -53 -13 -22 -23 -43 -21 -47 1 -5 -3 -8 -9 -8 -5 0 -8 -4 -5 -9 3 -5 0 -11 -8 -14 -8 -3 -13 -14 -12 -24 2 -10 -1 -21 -6 -24 -6 -4 -11 -18 -11 -32 -1 -14 -5 -23 -8 -21 -3 2 -12 -15 -19 -37 -12 -34 -15 -38 -22 -23 -5 12 -6 5 -3 -18 3 -22 1 -39 -6 -43 -6 -4 -8 -18 -4 -32 4 -18 2 -23 -6 -17 -9 5 -10 2 -6 -9 3 -9 1 -17 -5 -19 -5 -2 -11 -17 -13 -33 -1 -17 -5 -37 -9 -45 -3 -8 -11 -28 -17 -45 -6 -16 -12 -46 -13 -65 0 -19 -5 -38 -11 -42 -5 -4 -10 -25 -10 -47 0 -23 -2 -41 -6 -41 -6 0 -19 -30 -23 -53 0 -4 -19 -24 -42 -45 -22 -20 -31 -30 -19 -22 12 8 1 -5 -24 -28 -26 -24 -39 -41 -31 -36 8 4 2 -7 -14 -24 -17 -18 -38 -32 -47 -32 -12 0 -17 -6 -14 -20 3 -14 -11 -32 -45 -61 -27 -23 -47 -45 -45 -49 3 -4 -3 -14 -13 -21 -15 -13 -16 -12 -3 4 23 29 7 19 -25 -15 -16 -18 -20 -26 -9 -18 19 14 19 14 6 -3 -11 -14 -16 -15 -29 -5 -13 11 -15 10 -9 -6 8 -19 -9 -49 -23 -41 -4 2 -16 -5 -26 -18 -19 -21 -19 -21 1 -7 18 14 19 14 7 -2 -8 -10 -17 -16 -22 -15 -4 1 -23 -12 -41 -28 -48 -43 -76 -36 -84 18 -6 45 -2 132 8 157 9 21 38 139 41 164 1 12 5 28 9 36 21 49 36 110 31 124 -4 9 -1 16 6 16 7 0 10 7 6 15 -3 8 -1 15 5 15 6 0 9 7 6 15 -4 8 -1 17 4 21 6 3 9 15 6 25 -3 10 -1 19 4 21 5 2 11 17 12 33 1 17 5 32 8 35 12 10 50 153 45 167 -3 8 -1 11 4 8 10 -6 15 13 12 46 -1 12 5 16 21 13 12 -2 16 -2 10 2 -7 3 -13 10 -13 15 0 6 4 8 8 5 5 -3 8 15 7 39 -1 34 2 42 11 34 18 -15 29 28 13 47 -10 13 -10 17 0 24 8 4 10 13 6 20 -5 9 -4 11 3 6 11 -7 18 21 13 48 -1 5 3 12 9 16 6 4 12 20 13 36 1 16 8 35 15 43 7 7 10 22 7 32 -4 11 -2 19 5 19 6 0 8 5 5 11 -4 5 2 18 14 28 15 13 17 21 9 29 -8 8 -6 15 6 27 10 10 14 25 11 36 -4 11 -2 19 5 19 7 0 10 7 6 15 -3 8 -1 15 5 15 6 0 8 7 5 16 -4 9 -2 13 5 8 8 -4 9 1 4 16 -5 17 -4 21 6 15 9 -6 11 -4 6 8 -3 9 -2 19 4 22 5 4 7 11 4 16 -4 5 -1 9 5 9 6 0 10 6 8 13 -1 6 3 22 10 35 7 12 10 27 7 32 -3 6 -1 10 5 10 7 0 10 7 6 15 -3 8 0 15 7 15 8 0 12 11 12 28 -1 15 1 32 4 37 3 6 6 12 7 15 0 3 11 27 24 54 12 27 23 60 24 73 0 12 4 23 7 23 4 0 10 12 13 26 4 16 12 24 21 21 7 -3 19 1 26 9 7 8 18 13 25 10 7 -3 16 -1 19 4 3 5 12 7 20 3 8 -3 15 0 15 6 0 6 7 8 15 5 8 -3 20 -2 27 2 14 9 19 10 60 12 15 1 33 9 42 17 8 9 22 12 32 8 12 -4 15 -3 10 5 -5 9 -1 9 18 2 17 -6 26 -6 26 0 0 6 7 10 16 10 9 0 12 5 8 12 -5 8 -2 9 10 5 10 -4 23 -4 29 0 7 4 18 8 27 9 57 6 118 18 140 26 14 5 26 9 28 9 13 -4 22 1 17 9 -4 7 2 9 19 4 15 -3 26 -2 26 4 0 5 12 7 28 5 22 -4 24 -2 12 7 -12 9 -10 10 13 6 16 -4 27 -2 27 4 0 7 8 9 20 5 12 -4 20 -2 20 5 0 7 8 9 21 5 16 -5 19 -4 14 5 -6 9 1 10 25 5 25 -5 31 -4 25 6 -6 9 -2 11 13 7 12 -4 20 -2 16 3 -7 12 13 11 38 -2 18 -10 20 -9 15 5 -5 13 -2 15 21 10 22 -4 24 -3 12 6 -12 9 -8 10 18 5 20 -4 32 -3 32 4 0 6 5 11 11 11 6 0 8 -7 5 -15 -4 -12 2 -15 29 -13 42 3 45 12 8 27 -28 11 -28 11 5 6 23 -3 31 -1 26 7 -5 8 0 9 16 5 28 -7 121 13 114 25 -3 4 -1 8 5 8 5 0 13 -4 16 -10 3 -5 11 -10 17 -10 6 0 5 7 -3 16 -12 15 -11 16 10 9 18 -5 22 -4 16 5 -6 10 0 12 26 7 21 -4 29 -4 21 2 -18 11 48 24 73 15 14 -6 16 -4 10 6 -6 10 -3 12 13 8 12 -4 20 -3 17 2 -3 4 17 15 44 24 60 19 58 19 64 4 2 -7 3 -5 2 4 -2 11 10 22 34 32 46 20 110 77 93 83 -6 3 -10 9 -7 14 4 5 -1 6 -9 3 -12 -5 -16 0 -16 17 0 19 2 21 10 9 8 -12 10 -11 10 7 0 16 -5 20 -20 16 -11 -3 -20 -10 -20 -17 0 -6 -4 -6 -9 3 -6 9 -16 11 -32 5 l-24 -8 25 -7 c23 -6 23 -7 3 -8 -12 -1 -25 4 -28 9 -4 6 -11 8 -16 5 -5 -4 -9 -2 -9 3 0 5 32 15 70 22 39 7 70 16 70 19 0 3 -17 12 -37 19 -39 14 -84 16 -117 6 -12 -4 -16 -2 -12 5 4 6 22 11 41 11 19 0 37 5 41 11 3 6 22 9 40 7 19 -2 34 -1 34 2 0 4 14 7 31 8 44 1 44 6 -1 31 -32 18 -61 23 -143 28 -56 2 -149 8 -207 12 -77 6 -108 5 -115 -4 -6 -7 -26 -10 -47 -7 -21 2 -46 1 -55 -3 -10 -4 -38 -8 -63 -10 -25 -1 -65 -5 -90 -8 -79 -9 -194 -20 -217 -21 -13 -1 -23 -6 -23 -12 0 -6 -11 -10 -25 -8 -14 1 -50 -1 -80 -5 -37 -5 -55 -4 -55 3 0 6 -5 3 -11 -6 -5 -10 -21 -18 -35 -18 -14 0 -23 -4 -19 -9 3 -6 -9 -8 -29 -4 -20 3 -56 -2 -87 -12 -30 -10 -56 -17 -58 -16 -2 2 -7 -3 -12 -11 -6 -10 -11 -10 -21 0 -15 15 -54 16 -63 2 -4 -7 3 -9 22 -5 25 5 24 4 -7 -10 -49 -23 -51 -23 -61 3 -6 15 -5 21 1 17 6 -3 10 5 10 19 0 13 4 26 9 28 5 2 11 12 13 23 1 11 7 23 11 26 4 3 9 16 10 27 1 12 5 22 10 22 4 0 5 5 2 10 -3 6 -1 10 5 10 6 0 9 4 6 9 -9 14 5 42 17 34 6 -4 8 0 4 10 -3 10 -2 17 4 17 6 0 7 5 4 10 -3 6 -1 10 5 10 6 0 8 4 5 10 -7 12 40 102 49 93 4 -4 4 1 0 11 -5 13 -4 17 4 12 8 -5 10 -2 6 8 -3 9 -1 16 5 16 6 0 10 3 10 8 -3 19 2 33 11 27 6 -4 7 1 3 11 -4 12 -3 15 5 10 7 -4 10 -2 6 7 -3 8 2 20 11 27 8 7 15 21 15 31 0 11 4 19 10 19 21 0 2 42 -36 82 -21 22 -33 38 -27 34 9 -5 11 -2 7 9 -5 12 -10 13 -17 6 -18 -18 -36 -12 -52 17 -10 16 -14 19 -11 7 5 -15 1 -13 -15 8 -11 15 -26 27 -33 27 -7 0 -21 9 -32 21 -19 22 -69 51 -92 55 -7 1 -24 9 -37 18 -13 9 -31 16 -40 16 -9 0 -13 4 -10 10 4 6 -1 7 -10 3 -10 -3 -20 -1 -24 4 -3 6 -15 7 -28 2z m1286 -1834 c9 -2 18 -4 21 -5 3 -1 9 -2 13 -1 5 1 6 -3 2 -8 -3 -6 3 -15 14 -21 12 -6 18 -16 15 -25 -4 -8 -1 -15 6 -15 6 0 8 -4 5 -10 -3 -5 -2 -10 3 -10 6 0 8 -10 4 -22 -3 -14 -1 -19 6 -14 7 4 9 -2 6 -20 -3 -14 -1 -31 4 -38 7 -11 7 -203 -2 -276 -9 -84 -49 -240 -61 -240 -7 0 -15 -7 -19 -15 -3 -8 -1 -15 4 -15 6 0 10 5 10 12 0 6 3 9 6 6 6 -7 -27 -120 -38 -128 -4 -3 -9 -25 -10 -48 -2 -23 -7 -42 -11 -42 -5 0 -5 -4 -2 -10 3 -5 2 -10 -3 -10 -12 0 -33 -56 -25 -64 4 -3 1 -6 -5 -6 -6 0 -9 -8 -6 -17 5 -15 3 -15 -10 1 -16 20 -16 19 -16 -1 0 -12 5 -23 11 -25 8 -3 6 -10 -5 -21 -10 -9 -14 -21 -11 -27 3 -5 1 -10 -6 -10 -7 0 -10 -3 -7 -6 4 -3 -3 -15 -14 -26 -11 -11 -17 -27 -14 -36 5 -13 2 -12 -9 2 -8 11 -15 17 -15 14 0 -4 -3 -14 -7 -24 -4 -11 -3 -15 5 -10 6 3 14 2 17 -4 4 -6 1 -9 -7 -8 -7 2 -12 -4 -10 -14 4 -24 -16 -59 -31 -56 -7 2 -13 -1 -14 -7 0 -5 3 -9 8 -7 6 1 5 -7 -1 -18 -6 -11 -15 -20 -21 -20 -6 0 -7 -5 -4 -10 3 -6 -1 -13 -9 -16 -9 -3 -13 -10 -10 -15 3 -5 1 -9 -4 -9 -5 0 -17 -12 -27 -26 -12 -18 -13 -24 -4 -19 8 4 3 -3 -11 -15 -14 -12 -18 -18 -10 -14 8 4 -9 -18 -39 -49 -30 -31 -59 -53 -64 -50 -4 3 -7 -1 -5 -9 4 -18 -68 -102 -80 -94 -6 3 -13 -1 -16 -10 -4 -10 -2 -13 7 -8 8 5 8 3 -1 -7 -7 -8 -17 -15 -23 -15 -5 -1 -14 -2 -20 -3 -5 0 -7 -6 -4 -11 4 -6 3 -9 -2 -8 -14 4 -53 -13 -53 -23 0 -6 -4 -7 -10 -4 -5 3 -10 3 -10 -2 0 -4 -28 -8 -63 -9 -55 0 -65 3 -87 27 -14 15 -27 33 -29 40 -15 51 -27 79 -33 79 -4 0 -3 12 1 28 9 32 4 55 -11 46 -6 -4 -8 -2 -4 4 3 6 8 50 11 99 2 48 11 116 19 150 9 34 13 69 10 78 -3 8 -2 15 4 15 5 0 7 12 4 26 -4 21 -2 25 8 19 10 -6 12 -4 7 8 -3 9 -2 19 2 22 10 5 26 73 22 93 -1 6 3 12 8 12 6 0 8 7 5 15 -4 8 -1 15 5 15 6 0 8 7 5 15 -4 8 -1 15 6 15 6 0 10 6 8 12 -3 7 2 19 9 27 8 7 12 20 9 27 -3 8 -1 14 5 14 6 0 9 6 6 14 -3 7 -1 18 3 22 15 15 69 152 62 158 -3 3 0 6 6 6 6 0 9 7 5 17 -5 12 -3 14 7 8 9 -5 11 -4 6 3 -8 14 30 92 45 92 6 0 7 5 4 10 -3 6 -1 10 5 10 6 0 8 5 5 10 -3 6 -1 10 5 10 6 0 8 4 5 10 -3 5 3 17 14 27 11 9 18 20 15 25 -3 4 2 11 10 14 9 3 13 10 10 15 -6 10 30 61 38 53 3 -2 11 9 18 26 7 16 17 30 22 30 5 0 6 5 3 10 -3 6 1 13 9 16 9 3 14 10 11 14 -3 4 6 15 20 24 14 9 24 20 22 24 -1 5 24 33 56 62 31 30 57 60 57 67 0 7 9 13 19 13 10 0 33 17 51 38 17 20 29 30 25 22 -4 -10 -2 -9 8 2 8 10 17 15 20 11 4 -3 7 0 7 7 0 7 3 11 6 7 4 -3 13 1 21 9 9 9 23 12 35 8 11 -3 28 -8 37 -9z"/>
    <path
      d="M4818 8268 c-28 -22 -147 -204 -167 -256 -11 -27 -45 -91 -77 -143 -31 -52 -90 -157 -131 -234 -41 -77 -80 -144 -86 -150 -7 -5 -12 -15 -12 -20 0 -24 -240 -493 -249 -488 -5 4 -7 -1 -3 -11 4 -10 -24 -80 -77 -189 -45 -94 -100 -209 -121 -255 -27 -58 -41 -79 -48 -70 -5 8 -6 3 -3 -15 5 -19 2 -29 -9 -33 -8 -3 -13 -10 -10 -15 3 -4 -17 -52 -44 -106 -28 -54 -50 -91 -51 -83 0 13 -1 13 -10 0 -5 -8 -5 -17 0 -20 11 -7 -175 -421 -198 -440 -10 -8 -16 -22 -14 -32 2 -9 -1 -19 -5 -21 -5 -3 -9 12 -9 34 0 21 3 39 8 39 4 0 8 5 8 11 0 5 -5 7 -12 3 -28 -17 34 509 107 906 3 19 13 71 20 115 15 86 74 415 100 555 44 241 49 289 36 328 -18 49 -56 89 -100 103 -20 6 -67 26 -105 45 -38 19 -76 34 -86 34 -9 0 -34 11 -54 25 -26 18 -50 25 -82 25 -40 0 -51 -5 -91 -44 -29 -29 -44 -50 -40 -60 4 -9 -4 -28 -17 -43 -13 -16 -26 -41 -30 -58 -4 -16 -29 -75 -56 -130 -50 -105 -138 -292 -170 -360 -10 -22 -42 -89 -71 -150 -29 -60 -54 -112 -54 -115 -4 -13 -21 -51 -53 -120 -35 -75 -205 -471 -288 -670 -25 -58 -48 -114 -53 -125 -5 -11 -24 -59 -42 -107 -19 -47 -37 -84 -41 -82 -5 3 -7 -3 -5 -13 2 -17 -51 -162 -96 -263 -23 -51 -43 -102 -93 -240 -19 -52 -42 -111 -51 -130 -10 -19 -17 -38 -16 -41 1 -3 -11 -43 -28 -90 -16 -46 -27 -72 -24 -56 3 16 1 27 -6 27 -6 0 -10 -15 -8 -37 3 -55 -11 -103 -30 -103 -12 0 -13 -2 -3 -8 11 -8 -2 -60 -44 -172 -3 -8 -6 -17 -7 -20 -20 -84 -78 -244 -87 -242 -7 1 -9 -5 -5 -17 3 -12 -9 -62 -31 -123 -20 -57 -41 -123 -47 -147 -6 -24 -16 -45 -23 -48 -7 -3 -11 -10 -8 -16 2 -7 -7 -51 -22 -97 -83 -275 -93 -380 -37 -429 16 -14 27 -28 26 -33 -2 -4 1 -8 5 -8 5 0 28 -18 52 -40 24 -22 45 -38 48 -36 2 3 21 -5 41 -18 63 -40 203 -106 223 -106 10 0 16 -4 13 -10 -3 -5 -2 -10 2 -10 21 0 45 69 83 236 59 256 212 794 239 839 3 6 7 19 8 30 2 11 19 72 38 135 20 63 44 145 55 181 21 70 157 490 186 572 9 26 23 47 30 47 8 0 14 8 14 18 0 14 -2 15 -10 2 -12 -19 -13 -7 0 22 5 13 25 66 44 118 53 145 137 354 144 360 4 3 9 14 10 25 6 30 104 239 119 251 7 6 10 14 6 17 -3 4 -1 7 5 7 7 0 12 -5 12 -11 0 -5 5 -7 10 -4 6 3 10 15 10 27 0 18 -2 19 -17 7 -17 -13 -17 -12 -2 6 9 11 19 27 22 35 10 26 -3 -151 -19 -250 -20 -135 -42 -318 -50 -435 -6 -73 -9 -92 -15 -70 -5 24 -7 25 -8 8 0 -13 -7 -23 -13 -24 -7 0 -3 -5 10 -11 13 -7 22 -19 21 -32 -1 -16 -2 -17 -6 -4 -4 17 -33 34 -33 19 0 -5 6 -11 13 -14 9 -3 12 -82 12 -348 0 -189 4 -354 8 -366 5 -15 4 -23 -2 -23 -6 0 -11 -5 -11 -11 0 -5 5 -7 10 -4 13 8 42 -14 34 -26 -3 -5 1 -9 9 -9 7 0 24 -11 37 -25 12 -13 45 -32 73 -41 58 -19 108 -44 89 -44 -7 0 -10 -5 -7 -10 5 -8 11 -8 20 0 10 8 24 6 54 -9 22 -12 47 -21 54 -21 26 0 66 40 86 86 11 24 24 44 28 44 4 0 9 15 10 34 1 19 19 69 41 113 22 43 43 89 47 103 9 31 302 610 336 665 14 22 28 48 32 58 3 9 13 17 22 17 8 0 15 5 15 11 0 5 -4 7 -10 4 -5 -3 -10 -4 -10 -2 0 3 114 217 230 432 20 39 54 102 75 140 60 112 65 118 80 105 10 -8 14 -5 19 16 4 14 9 25 11 23 1 -2 -6 -42 -17 -89 -11 -47 -19 -93 -19 -102 0 -10 -3 -18 -7 -18 -4 0 -7 -12 -8 -28 -2 -59 -25 -142 -40 -142 -8 0 -14 -8 -14 -17 0 -15 2 -16 10 -3 8 12 10 11 10 -7 0 -13 -5 -23 -11 -23 -5 0 -8 -4 -5 -8 3 -5 -8 -67 -24 -138 -15 -71 -36 -164 -45 -206 -9 -43 -20 -76 -25 -73 -4 2 -7 -14 -7 -38 0 -23 -10 -90 -23 -149 -18 -83 -26 -105 -37 -101 -13 5 -13 3 -3 -14 10 -16 5 -55 -28 -219 -22 -109 -52 -271 -68 -359 -16 -93 -33 -163 -41 -168 -7 -4 -13 -13 -13 -18 0 -6 5 -7 12 -3 8 5 9 -4 5 -32 -32 -223 -38 -280 -35 -349 3 -70 7 -85 32 -118 17 -22 35 -36 43 -33 7 3 30 -5 50 -17 21 -12 42 -22 48 -23 26 -2 75 -30 79 -44 3 -12 4 -11 5 3 1 23 42 22 110 -3 57 -22 100 -20 126 7 8 8 15 10 15 4 0 -6 7 -8 15 -5 8 4 12 11 8 17 -10 17 -3 203 12 292 7 44 18 118 25 165 18 131 101 574 108 580 4 3 8 25 9 50 1 25 7 46 13 48 5 2 8 8 5 12 -3 5 4 61 16 125 17 90 25 115 38 115 13 0 13 2 2 9 -11 7 -11 18 -1 62 6 30 14 61 17 69 3 8 7 22 8 30 5 33 26 130 50 235 14 61 32 137 40 170 14 62 39 171 99 425 64 272 88 359 99 357 6 -1 12 7 14 18 3 16 2 17 -6 5 -15 -21 -13 -5 8 80 61 240 120 433 133 442 9 5 9 8 2 8 -11 0 -2 38 61 245 80 262 99 321 104 325 3 3 7 16 8 30 2 37 43 141 53 135 5 -3 11 -1 15 5 3 5 1 10 -5 10 -13 0 -4 58 11 75 12 12 12 28 0 21 -5 -4 -12 8 -16 25 -7 31 -72 102 -85 94 -4 -3 -23 5 -41 18 -46 30 -176 97 -189 97 -6 0 -23 11 -38 25 -16 16 -34 24 -46 21 -10 -3 -35 3 -55 13 -44 22 -92 25 -113 9z"/>
    <path
      d="M7166 4032 c-3 -2 -79 -4 -170 -3 -119 0 -165 -3 -160 -11 5 -8 -21 -9 -94 -4 -72 5 -102 4 -102 -4 0 -8 -22 -9 -71 -4 -56 5 -70 4 -64 -6 6 -9 0 -11 -22 -6 -25 6 -156 -6 -223 -19 -14 -3 -54 -7 -90 -8 -42 -1 -69 -7 -76 -16 -7 -9 -20 -12 -38 -7 -16 4 -25 3 -22 -2 3 -6 -3 -12 -14 -15 -11 -3 -18 -1 -14 4 3 5 -2 9 -10 9 -8 0 -17 -4 -21 -10 -3 -5 -12 -7 -21 -3 -18 7 -194 -26 -211 -39 -7 -5 -16 -7 -21 -4 -10 6 -244 -41 -252 -52 -3 -4 -13 -7 -22 -8 -47 -2 -59 -5 -54 -12 3 -5 -18 -8 -46 -8 -29 0 -53 -5 -55 -11 -2 -5 -15 -8 -28 -5 -15 2 -25 0 -25 -8 0 -7 -8 -9 -20 -5 -12 4 -20 2 -20 -5 0 -7 -8 -9 -20 -5 -12 4 -20 2 -20 -5 0 -6 -4 -9 -8 -6 -11 7 -266 -54 -273 -66 -3 -5 -14 -6 -24 -2 -12 5 -16 4 -11 -4 4 -7 -4 -10 -23 -10 -16 1 -50 -5 -74 -11 -34 -10 -50 -10 -66 -2 -18 10 -21 9 -21 -8 0 -15 -12 -22 -50 -32 -27 -7 -50 -17 -50 -21 0 -5 -4 -7 -9 -4 -7 5 -121 -29 -171 -51 -17 -7 -28 -9 -53 -11 -10 -1 -15 -6 -12 -12 3 -6 -1 -7 -9 -4 -9 4 -16 1 -16 -6 0 -7 -7 -10 -15 -6 -8 3 -15 1 -15 -4 0 -5 -7 -7 -15 -4 -8 4 -15 1 -15 -6 0 -7 -7 -10 -15 -6 -8 3 -15 2 -15 -2 0 -4 -10 -9 -22 -9 -13 -1 -24 -7 -26 -12 -2 -5 -10 -7 -19 -4 -12 5 -14 3 -8 -6 6 -10 2 -11 -15 -6 -17 5 -21 4 -15 -6 6 -9 3 -11 -8 -6 -10 3 -17 2 -17 -2 0 -5 -7 -12 -16 -15 -8 -3 -12 -2 -9 4 3 6 -1 7 -9 4 -9 -3 -16 -10 -16 -15 0 -4 -6 -6 -14 -3 -15 6 -239 -83 -244 -97 -2 -4 -10 -5 -19 -2 -10 4 -14 2 -10 -4 7 -11 -22 -28 -31 -18 -3 3 1 5 8 5 7 0 11 2 8 5 -8 9 -38 -6 -32 -16 3 -5 -2 -6 -10 -3 -9 3 -16 1 -16 -5 0 -6 -3 -10 -7 -10 -21 3 -43 -2 -55 -13 -7 -7 -22 -15 -33 -16 -11 -2 -22 -8 -23 -13 -2 -5 -8 -7 -13 -3 -5 3 -9 0 -9 -6 0 -6 -4 -8 -10 -5 -5 3 -10 1 -10 -5 0 -6 -4 -8 -10 -5 -6 3 -10 2 -10 -2 0 -5 -10 -9 -21 -10 -12 -1 -30 -11 -41 -22 -20 -22 -34 -28 -23 -11 3 6 -1 7 -9 4 -9 -3 -13 -10 -10 -15 5 -9 -9 -13 -35 -10 -7 2 -10 -2 -6 -8 3 -6 0 -12 -7 -13 -7 0 -17 -2 -23 -3 -5 -2 -16 -3 -23 -4 -7 0 -10 -5 -7 -11 6 -10 -7 -14 -33 -11 -7 1 -15 -5 -18 -13 -3 -9 -10 -13 -15 -10 -5 3 -9 1 -9 -5 0 -6 -7 -8 -15 -5 -8 4 -17 -1 -21 -10 -3 -9 -10 -14 -14 -11 -5 3 -15 -1 -23 -9 -8 -8 -17 -12 -21 -9 -3 4 -6 1 -6 -6 0 -7 -5 -9 -12 -5 -6 4 -16 0 -22 -8 -6 -8 -33 -27 -61 -43 -68 -39 -133 -83 -176 -121 -30 -26 -34 -35 -27 -54 5 -14 5 -27 -2 -34 -23 -23 -4 -96 25 -96 8 0 12 -6 9 -13 -4 -12 59 -95 152 -199 18 -20 61 -51 94 -69 90 -47 124 -39 270 58 63 43 124 83 135 89 11 6 44 25 73 42 28 17 100 57 160 88 59 30 112 60 119 66 7 5 18 6 24 2 7 -4 9 -3 6 3 -8 13 20 26 35 16 7 -3 8 -1 4 5 -6 11 13 17 37 13 5 -1 6 2 4 7 -8 12 151 92 170 85 12 -5 14 -3 8 7 -6 10 -4 12 8 7 10 -4 20 0 25 9 5 9 21 17 35 17 15 1 27 6 27 10 0 5 5 5 10 2 6 -3 10 -1 10 5 0 7 7 9 16 6 8 -3 13 -2 10 3 -6 10 73 43 85 35 5 -3 9 0 9 6 0 7 7 9 16 6 9 -3 12 -2 8 5 -3 6 1 10 12 9 32 -4 45 0 40 9 -7 11 53 33 67 24 5 -3 7 -1 4 4 -8 13 39 27 55 17 6 -4 8 -3 4 4 -7 12 29 26 44 17 5 -3 10 -1 10 5 0 6 5 8 10 5 6 -3 10 -1 10 5 0 7 7 10 15 6 8 -3 15 -1 15 5 0 6 7 9 15 5 8 -3 15 -1 15 5 0 6 5 7 10 4 6 -3 10 -2 10 4 0 12 96 45 109 37 14 -9 42 5 34 17 -4 6 0 8 10 4 10 -3 17 -3 17 2 0 13 118 54 135 47 9 -3 14 -2 11 3 -8 12 38 23 60 14 11 -4 15 -3 11 4 -8 13 39 27 55 17 7 -5 8 -2 3 6 -6 10 -3 12 13 8 14 -4 20 -2 16 4 -4 6 2 8 16 3 17 -5 20 -4 15 5 -6 10 -1 12 18 8 15 -3 24 -1 21 3 -7 11 42 23 57 13 7 -4 10 -3 6 3 -8 12 50 26 66 16 6 -4 7 -1 2 7 -6 10 -3 12 11 8 11 -3 26 2 33 9 7 8 24 13 37 10 13 -2 22 -1 19 3 -7 11 92 32 116 25 16 -5 19 -4 14 5 -6 10 -1 12 18 8 15 -3 24 -1 21 3 -5 9 31 14 69 11 9 -1 17 3 17 8 0 15 37 12 43 -2 3 -8 6 -5 6 6 1 14 7 17 26 14 15 -3 22 -1 18 5 -4 6 4 8 20 5 15 -3 28 0 30 5 2 6 22 11 44 11 23 1 39 5 35 10 -3 5 5 7 16 4 14 -4 20 -2 16 4 -5 7 4 9 24 6 19 -3 29 0 25 5 -4 6 6 8 26 4 23 -5 30 -3 25 5 -5 8 3 9 30 5 24 -4 34 -2 30 5 -4 7 4 8 26 3 23 -5 30 -4 26 4 -4 6 0 11 8 11 9 0 16 -9 16 -21 0 -11 5 -17 10 -14 6 4 23 9 37 11 36 7 42 14 12 14 -13 0 -31 5 -39 11 -12 8 -8 10 17 7 18 -3 30 -1 27 4 -3 4 -1 8 5 8 5 0 12 -6 14 -12 4 -10 6 -10 6 0 1 8 10 10 29 6 22 -4 24 -3 12 6 -12 9 -7 10 25 6 27 -4 35 -2 25 4 -11 7 -7 10 17 10 17 0 35 -4 38 -10 3 -5 12 -10 18 -9 9 0 8 2 -1 6 -19 8 -3 23 25 23 21 0 24 -2 13 -15 -8 -9 -8 -15 -2 -15 6 0 13 8 17 19 7 22 55 17 55 -6 0 -8 5 -11 12 -7 6 4 25 11 42 15 30 7 30 7 -9 9 -35 1 -37 2 -17 11 13 5 36 6 50 3 21 -4 24 -3 12 5 -12 8 -7 11 22 11 31 0 36 -3 32 -17 -2 -10 1 -8 7 5 12 23 21 24 134 27 130 4 151 7 125 16 -18 6 -5 8 43 6 37 -2 67 1 67 6 0 6 24 7 58 4 34 -4 49 -3 37 2 -14 6 4 10 57 12 42 2 74 1 71 -3 -2 -5 3 -8 12 -8 9 0 13 4 10 10 -4 6 44 10 133 9 219 0 295 13 306 54 3 12 6 45 6 73 0 44 -5 56 -36 93 -21 23 -48 47 -61 52 -15 5 -21 14 -17 21 4 6 3 8 -4 4 -6 -3 -13 -2 -17 3 -3 6 -12 8 -20 4 -8 -3 -15 0 -15 6 0 6 -6 8 -14 5 -8 -3 -17 -1 -20 5 -4 6 -14 7 -23 4 -12 -5 -14 -3 -8 6 6 10 2 11 -15 6 -17 -5 -21 -4 -15 5 6 10 0 12 -28 7 -21 -3 -39 -1 -43 5 -3 5 -24 8 -45 6 -22 -2 -39 -1 -39 3 0 3 -24 6 -52 6 -29 1 -79 5 -111 10 -32 5 -59 7 -61 5z"/>
  </g>
</svg>
